<svg xmlns="http://www.w3.org/2000/svg" width="20" height="20" viewBox="0 0 20 20"><path d="M11.284 8.847c1.329-.031 2.72-.028 3.961.498l.228.092c1.147.49 1.986 1.11 2.533 2.244.222.63.196 1.299-.061 1.911-.619 1.183-1.857 1.916-3.109 2.31-1.087.299-2.158.504-3.287.506l-.209.001-.434.001-.652.003c-2.127.007-4.768-.353-6.392-1.886a4 4 0 0 1-.337-.429l-.154-.22c-.215-.632-.151-1.446.072-2.075.207-.282.539-.417.84-.579.462-.254.91-.52 1.347-.815l.152-.102a28 28 0 0 0 .738-.517c.86-.621.86-.621 1.431-.692l.205-.042c1.029-.194 2.085-.182 3.129-.21m-3.749 4.043c-.11.205-.06.336.005.553l.133-.018c.745-.088 1.629-.189 2.362.018.352.099.667.097 1.03.082l.082-.328c-.938-.421-2.646-.893-3.612-.307m5.968-.082-.198.03c-.358.062-.627.144-.929.359l.082.328q.169.007.338.01l.19.006c.216-.007.216-.007.435-.098.336-.104.634-.104.983-.098l.197.002c.464.006.92.036 1.381.096l.082-.41c-.287-.271-.569-.299-.948-.318l-.183-.01a7.6 7.6 0 0 0-1.431.102" fill="#76b1f2"/><path d="M11.393 4.344c1.633-.02 3.413.67 4.672 1.721v.164l.2.067.21.097.082.246a10 10 0 0 0 .328.164 6.4 6.4 0 0 1 1.475 1.885l.142.265c.655 1.258 1.108 2.649.739 4.069q-.067.212-.143.42l-.069.193c-.399 1-1.168 1.755-2.144 2.185a7 7 0 0 1-.656.21l-.187.052c-1.107.288-2.276.42-3.419.394l.082-.164q.346-.081.697-.143c1.582-.311 3.311-.877 4.303-2.234.376-.659.451-1.374.274-2.109-.355-.988-1.071-1.595-1.975-2.081a8 8 0 0 0-2.48-.727l-.207-.028c-1.948-.222-4.019-.068-5.941.273A16 16 0 0 1 8.18 8.5c.896-.786.896-.786 1.607-1.732.125-.202.254-.345.422-.512.511-.558.836-1.247 1.184-1.912m2.787 2.131c-.101.085-.101.085-.113.266.044.326.186.437.441.635.222.034.222.034.41 0 .078-.184.078-.184.082-.41-.193-.25-.332-.385-.635-.482zm-.492.82-.164.164c-.005.166-.005.166.082.328.3.24.523.272.902.246l.082-.41c-.28-.257-.526-.307-.902-.328m1.075.191c-.139.208-.112.384-.091.628l.082.164h.164l-.015.272c-.008.289-.008.289.108.461.227.128.39.119.645.087.164-.082.164-.082.246-.246.02-.256.02-.256 0-.492l.41-.164c.033-.36.033-.36-.132-.67-.257-.196-.414-.191-.734-.185h-.282c-.243.016-.243.016-.4.145m-.83.711c-.02.198-.02.198 0 .41.299.199.468.177.82.164l.082-.328c-.222-.213-.319-.245-.635-.261zm2.684.205c-.165.12-.165.12-.22.359-.028.258-.028.258.113.451l.128.132c.313-.023.313-.023.574-.164a5 5 0 0 0 .005-.333l-.005-.322c-.285-.144-.285-.144-.594-.123" fill="#8cdee9"/><path d="M11.393 3.77c.128.165.128.165.164.41-.095.28-.237.528-.384.784l-.125.222c-.364.624-.777 1.114-1.294 1.617l-.199.215c-.489.523-1.02.895-1.63 1.258a15 15 0 0 0-.373.234c-1.726 1.079-4.426 2.115-6.486 1.982.236-1.345 1.063-2.609 1.967-3.607l.246-.164.072.168c.206.449.358.768.829.98.267.028.267.028.492 0v-.246l-.266-.097c-.303-.133-.471-.263-.636-.559a1.5 1.5 0 0 1 .082-.866c.455-.553 1.05-.95 1.64-1.347l-.051-.277-.031-.297.164-.164c.2.01.2.01.41.082l.108.164c.138.201.138.201.461.205l.175.012c.231.042.329.19.485.357.219.027.219.027.41 0-.129-.322-.203-.466-.507-.645l-.231-.093c1.081-.721 3.356-.991 4.508-.328M5.82 5.492v.328c.187.185.187.185.43.348l.242.175c.233.16.233.16.557.132-.024-.273-.055-.384-.258-.575l-.219-.147-.217-.15c-.216-.137-.216-.137-.535-.111m-.246.41c-.074.139-.074.139-.082.328.141.239.141.239.343.471l.198.245c.191.223.191.223.524.186.035-.284.014-.39-.153-.629l-.201-.216-.199-.219c-.174-.194-.174-.194-.43-.166m-.41.328c-.067.138-.067.138-.082.328.104.256.104.256.261.512l.152.268.161.203h.328c.036-.375-.069-.574-.271-.886l-.153-.242-.15-.183z" fill="#ecebe9"/><path d="M9.672 6.803c0 .355-.217.51-.451.753l-.138.145-.273.286a18 18 0 0 0-.287.309c-.857.915-1.983 1.602-3.031 2.278l-.248.162c-2.962 1.887-2.962 1.887-4.096 1.887-.205-.113-.205-.113-.328-.328-.092-.561.042-1.173.164-1.721.146-.146.37-.124.569-.149 2.005-.283 4.066-.876 5.824-1.9l.167-.096a10 10 0 0 0 2.128-1.626" fill="#9e9e9d"/><path d="m3.361 11.721.164.082-.036.145c-.154.679-.289 1.405.031 2.053.745 1.144 2.504 1.754 3.764 2.059.876.184 1.726.264 2.62.259h.245l.764-.002.522-.001q.636-.001 1.271-.004c-.142.179-.214.241-.443.278l-.236.001-.269.003-.293-.001-.305.001h-.642q-.481 0-.962.004c-2.277.006-4.875-.205-6.687-1.762-.563-.571-.838-1.36-.84-2.157l.02-.302q.322-.168.645-.333l.185-.097.178-.09.164-.085z" fill="#89dce9"/><path d="m15.446 7.341.281-.005c.306.049.402.122.584.369.02.266.02.266 0 .492l-.41.164.015.231c-.014.26-.014.26-.107.414-.226.136-.387.125-.645.092-.154-.087-.154-.087-.246-.246-.015-.302-.015-.302 0-.574h-.164c-.115-.229-.103-.402-.082-.656.201-.301.431-.281.774-.282" fill="#f6fdfc"/><path d="M11.066 13.115a.8.8 0 0 1 .082.328c-.126.126-.24.096-.415.097a3 3 0 0 1-.857-.143c-.75-.135-1.585-.056-2.335.045-.108-.362-.108-.362-.005-.553.82-.497 2.732-.248 3.53.225m4.052-.4.175.008c.328.025.532.081.773.309l-.082.41-.318-.041c-.42-.042-.838-.053-1.26-.056l-.191-.003a2.7 2.7 0 0 0-1.018.183c-.209.016-.209.016-.4.01l-.194-.005-.144-.004-.082-.328c.36-.257.699-.324 1.127-.389l.206-.032a7.3 7.3 0 0 1 1.408-.06" fill="#5391da"/><path d="M3.77 6.148c.082.164.082.164.067.476-.002.257.014.34.143.574.248.222.463.311.774.425l-.082.328c-.308.029-.47.011-.748-.133a2 2 0 0 1-.656-.932c.012-.287.056-.326.251-.523a8 8 0 0 1 .251-.215" fill="#7e7d7b"/><path d="M17.213 8.525v.656c-.182.11-.287.168-.502.149-.154-.068-.154-.068-.318-.314.01-.251.01-.251.082-.492.268-.23.441-.149.738 0" fill="#dff5f8"/><path d="M7.295 4.18c.2.195.2.195.328.41v.246c-.184.061-.184.061-.41.082l-.149-.154c-.201-.195-.256-.201-.523-.225l-.311-.031-.082-.164c.417-.213.678-.306 1.148-.164" fill="#7a7977"/><path d="M5.574 5.902c.324.044.462.191.676.43l.175.191c.15.226.16.343.132.608-.328 0-.328 0-.524-.186L5.835 6.7l-.201-.242c-.142-.228-.142-.228-.123-.422z" fill="#7d7c7a"/><path d="M14.18 6.475c.291.016.413.084.645.266.175.226.175.226.16.457l-.067.179c-.179.026-.179.026-.41 0-.255-.198-.396-.31-.441-.635.031-.185.031-.185.113-.267" fill="#f2fbfb"/><path d="M13.689 7.295c.375.028.622.07.902.328l-.082.41c-.434.041-.64-.066-.984-.328.072-.318.072-.318.164-.41" fill="#f3fcfb"/><path d="M5.164 6.23c.239.027.314.064.467.255l.127.216.129.214c.102.229.116.378.097.626-.188-.014-.188-.014-.41-.082-.15-.194-.15-.194-.277-.435l-.13-.24c-.089-.237-.096-.325-.003-.554m.656-.738c.463.012.731.232 1.085.501.144.155.144.155.144.482-.463-.012-.731-.232-1.085-.501-.144-.154-.144-.154-.144-.482" fill="#7b7a78"/><path d="M13.934 8.197c.525-.03.525-.03.774.123l.128.123-.082.328c-.543.02-.543.02-.82-.164-.015-.215-.015-.215 0-.41" fill="#f3fcfb"/></svg>