<svg xmlns="http://www.w3.org/2000/svg" width="244" height="244"><path d="M137.67 107.93c16.217-.383 33.19-.342 48.33 6.07l2.781 1.125c13.989 5.973 24.235 13.537 30.907 27.375 2.704 7.68 2.393 15.842-.75 23.312C211.372 180.254 196.268 189.2 181 194c-13.261 3.646-26.331 6.148-40.102 6.168l-2.544.01q-2.649.007-5.299.007c-2.652.002-5.305.02-7.957.04-25.953.086-58.174-4.303-77.985-23.006A50 50 0 0 1 43 172l-1.875-2.688c-2.62-7.714-1.846-17.643.875-25.312 2.53-3.437 6.57-5.084 10.25-7.063 5.634-3.1 11.1-6.349 16.438-9.937l1.86-1.25a345 345 0 0 0 8.999-6.313C90.035 111.86 90.035 111.86 97 111l2.496-.508c12.555-2.367 25.443-2.225 38.173-2.563m-45.732 49.32c-1.343 2.505-.726 4.1.062 6.75l1.625-.219c9.088-1.076 19.875-2.306 28.813.219 4.293 1.205 8.139 1.184 12.562 1l1-4c-11.443-5.138-32.276-10.893-44.062-3.75m72.812-1-2.416.368c-4.37.76-7.65 1.76-11.334 4.382l1 4c1.375.055 2.75.093 4.125.125l2.32.07c2.64-.087 2.64-.087 5.313-1.191 4.097-1.269 7.734-1.263 11.992-1.192l2.402.02c5.665.074 11.226.443 16.848 1.168l1-5c-3.497-3.31-6.942-3.653-11.562-3.875l-2.228-.118c-5.916-.197-11.616.342-17.46 1.243" fill="#76b1f2"/><path d="M139 53c19.923-.242 41.639 8.18 57 21v2l2.438.813L201 78l1 3a124 124 0 0 0 4 2c7.567 6.68 13.37 14.077 18 23l1.73 3.234c7.997 15.345 13.52 32.323 9.02 49.641q-.823 2.581-1.75 5.125l-.844 2.36C227.28 178.55 217.901 187.753 206 193c-2.633.999-5.287 1.812-8 2.563l-2.287.633c-13.51 3.512-27.767 5.13-41.713 4.804l1-2c2.835-.666 5.638-1.23 8.5-1.75 19.303-3.8 40.389-10.702 52.5-27.25 4.585-8.037 5.507-16.757 3.34-25.734-4.325-12.059-13.063-19.464-24.09-25.391-9.716-4.545-19.604-7.614-30.25-8.875l-2.523-.336c-23.76-2.705-49.035-.828-72.477 3.336a196 196 0 0 1 9.813-9.312c10.928-9.584 10.928-9.584 19.601-21.133 1.53-2.466 3.101-4.204 5.148-6.243C130.788 69.52 134.753 61.108 139 53m34 26c-1.23 1.036-1.23 1.036-1.375 3.25.542 3.972 2.268 5.333 5.375 7.75 2.712.42 2.712.42 5 0 .95-2.24.95-2.24 1-5-2.36-3.054-4.05-4.698-7.75-5.875zm-6 10-2 2c-.059 2.02-.059 2.02 1 4 3.661 2.929 6.382 3.322 11 3l1-5c-3.413-3.14-6.415-3.745-11-4m13.113 2.336c-1.7 2.541-1.366 4.69-1.113 7.664l1 2h2l-.187 3.313c-.103 3.528-.103 3.528 1.312 5.624 2.765 1.567 4.757 1.453 7.875 1.063 2-1 2-1 3-3 .25-3.125.25-3.125 0-6l5-2c.403-4.391.403-4.391-1.605-8.176-3.134-2.387-5.054-2.328-8.958-2.261l-3.44.003c-2.967.198-2.967.198-4.884 1.77M170 100c-.25 2.416-.25 2.416 0 5 3.644 2.43 5.712 2.162 10 2l1-4c-2.712-2.603-3.891-2.995-7.75-3.187zm32.75 2.5c-2.014 1.463-2.014 1.463-2.687 4.375-.342 3.142-.342 3.142 1.375 5.5L203 114c3.818-.275 3.818-.275 7-2a59 59 0 0 0 .063-4.062L210 104c-3.475-1.753-3.475-1.753-7.25-1.5" fill="#8cdee9"/><path d="M139 46c1.563 2.012 1.563 2.012 2 5-1.155 3.417-2.89 6.446-4.687 9.563l-1.53 2.706C130.34 70.887 125.31 76.866 119 83l-2.422 2.629c-5.961 6.38-12.442 10.917-19.885 15.352a184 184 0 0 0-4.552 2.855C71.074 116.987 38.14 129.622 13 128c2.876-16.406 12.968-31.83 24-44l3-2 .883 2.047C43.399 89.523 45.255 93.42 51 96c3.252.336 3.252.336 6 0v-3l-3.25-1.187C50.055 90.193 48.006 88.612 46 85c-.682-3.82-.409-6.952 1-10.562C52.542 67.683 59.81 62.848 67 58l-.625-3.375L66 51l2-2c2.438.125 2.438.125 5 1l1.313 2c1.68 2.45 1.68 2.45 5.624 2.5l2.141.152C84.9 55.162 86.091 56.96 88 59c2.668.335 2.668.335 5 0-1.573-3.933-2.474-5.69-6.187-7.875L84 50c13.19-8.794 40.949-12.094 55-4M71 67v4c2.284 2.26 2.284 2.26 5.25 4.25l2.953 2.14C82.04 79.333 82.04 79.333 86 79c-.294-3.336-.665-4.685-3.145-7.02l-2.668-1.793-2.644-1.832C74.892 66.686 74.892 66.686 71 67m-3 5c-.898 1.7-.898 1.7-1 4 1.717 2.92 1.717 2.92 4.188 5.75l2.417 2.984c2.33 2.724 2.33 2.724 6.395 2.266.431-3.468.17-4.757-1.863-7.676l-2.45-2.636-2.425-2.676C71.13 71.668 71.13 71.668 68 72m-5 4c-.823 1.688-.823 1.688-1 4 1.263 3.118 1.263 3.118 3.188 6.25l1.855 3.266L69 92h4c.444-4.578-.847-6.999-3.312-10.812l-1.864-2.958L66 76z" fill="#ecebe9"/><path d="M118 83c0 4.335-2.65 6.221-5.5 9.188l-1.68 1.773a816 816 0 0 1-3.334 3.485 214 214 0 0 0-3.502 3.765C93.53 112.373 79.786 120.76 67 129l-3.02 1.977C27.835 154 27.835 154 14 154c-2.5-1.375-2.5-1.375-4-4-1.127-6.848.513-14.314 2-21 1.783-1.783 4.517-1.516 6.938-1.812C43.403 123.73 68.546 116.494 90 104l2.04-1.171C101.788 97.17 110.013 90.987 118 83" fill="#9e9e9d"/><path d="m41 143 2 1-.437 1.766c-1.876 8.283-3.525 17.14.374 25.047 9.085 13.953 30.551 21.4 45.918 25.12 10.687 2.24 21.061 3.225 31.965 3.165l2.984-.005c3.107-.005 6.214-.018 9.321-.03l6.367-.014q7.755-.017 15.508-.049c-1.728 2.178-2.613 2.937-5.401 3.388l-2.883.016-3.283.038-3.57-.008-3.715.015q-3.918.01-7.836-.003c-3.911-.008-7.82.02-11.732.052-27.775.079-59.47-2.499-81.58-21.498-6.865-6.961-10.22-16.598-10.25-26.312L25 151q3.93-2.044 7.875-4.062l2.262-1.182 2.168-1.104 2-1.031z" fill="#89dce9"/><path d="m188.438 89.563 3.433-.06c3.729.592 4.91 1.49 7.129 4.497.25 3.25.25 3.25 0 6l-5 2 .188 2.813C194 108 194 108 192.875 109.875c-2.756 1.654-4.726 1.519-7.875 1.125-1.875-1.062-1.875-1.062-3-3-.187-3.687-.187-3.687 0-7h-2c-1.4-2.799-1.253-4.905-1-8 2.454-3.668 5.26-3.433 9.438-3.437" fill="#f6fdfc"/><path d="M135 160c.8 2.04.8 2.04 1 4-1.533 1.533-2.932 1.17-5.062 1.188-3.751-.03-6.837-.718-10.45-1.739-9.155-1.653-19.34-.68-28.488.551-1.313-4.416-1.313-4.416-.062-6.75 10.008-6.066 33.33-3.029 43.062 2.75m49.438-4.875 2.13.103c4 .311 6.495.992 9.432 3.772l-1 5-3.875-.5c-5.127-.507-10.227-.646-15.375-.687l-2.328-.04c-4.585-.008-8.068.655-12.422 2.227-2.555.195-2.555.195-4.875.125l-2.367-.055L152 165l-1-4c4.396-3.13 8.53-3.956 13.75-4.75l2.512-.387a89.3 89.3 0 0 1 17.176-.738" fill="#5391da"/><path d="M46 75c1 2 1 2 .813 5.813-.023 3.13.167 4.152 1.75 7C51.579 90.52 54.205 91.613 58 93l-1 4c-3.756.358-5.74.136-9.125-1.625-4.011-3.314-6.179-6.518-8-11.375.146-3.497.683-3.978 3.063-6.375A98 98 0 0 1 46 75" fill="#7e7d7b"/><path d="M210 104v8c-2.22 1.348-3.501 2.044-6.125 1.813C202 113 202 113 200 110c.125-3.062.125-3.062 1-6 3.27-2.803 5.377-1.812 9 0" fill="#dff5f8"/><path d="M89 51c2.438 2.375 2.438 2.375 4 5v3c-2.25.75-2.25.75-5 1l-1.812-1.875c-2.45-2.38-3.12-2.449-6.376-2.75L76 55l-1-2c5.092-2.598 8.275-3.728 14-2" fill="#7a7977"/><path d="M68 72c3.954.534 5.64 2.33 8.25 5.25l2.14 2.328c1.833 2.757 1.955 4.18 1.61 7.422-4 0-4 0-6.395-2.266-.797-.984-1.595-1.97-2.418-2.984-.81-.975-1.621-1.95-2.457-2.953C67 76 67 76 67.238 73.64z" fill="#7d7c7a"/><path d="M173 79c3.55.197 5.04 1.03 7.875 3.25C183 85 183 85 182.813 87.813L182 90c-2.187.313-2.187.313-5 0-3.107-2.417-4.833-3.778-5.375-7.75C172 80 172 80 173 79" fill="#f2fbfb"/><path d="M167 89c4.57.345 7.583.857 11 4l-1 5c-5.294.504-7.814-.81-12-4 .875-3.875.875-3.875 2-5" fill="#f3fcfb"/><path d="M63 76c2.916.33 3.826.784 5.703 3.11l1.547 2.64 1.578 2.61C73.07 87.156 73.24 88.977 73 92c-2.29-.168-2.29-.168-5-1-1.836-2.363-1.836-2.363-3.375-5.312l-1.586-2.926C61.954 79.877 61.868 78.804 63 76m8-9c5.65.145 8.923 2.828 13.242 6.113C86 75 86 75 86 79c-5.65-.145-8.923-2.828-13.242-6.113C71 71 71 71 71 67" fill="#7b7a78"/><path d="M170 100c6.4-.37 6.4-.37 9.438 1.5L181 103l-1 4c-6.625.25-6.625.25-10-2-.187-2.625-.187-2.625 0-5" fill="#f3fcfb"/></svg>