<svg xmlns="http://www.w3.org/2000/svg" width="20" height="20" viewBox="0 0 20 20"><path d="m9.736 4.766.023.001c.309.008.699.045.963.224a.2.2 0 0 1 .049.107l.004.035c0 .059-.035.11-.063.16l.018-.005c.108-.024.215-.007.324.005l.026.003.139.017v.019h.244v.029h.078v.019h.098v.029h.068v.019h.078v.029h.049v.019h.068v.029h.078v.019h.068v.029h.068v.019h.029v.029h.078v.019h.098v.029h.049v.019l.049.01v.019h.049v.019h.019v.029h.078v.019h.019v.029h.078v.019h.019v.029h.049v.019h.029v.029h.088v.019h.029v.029h.049v.019h.029v.029h.049v.019h.019v.029h.049v.019h.029v.029h.049V6.1h.039v.029h.029v.019h.029v.029h.049v.019h.049v.029h.019v.019h.049v.029h.029v.019h.019v.029h.029v.019h.019v.029h.029v.019h.019v.029h.029v.019h.068v.029h.029v.019h.019v.029h.029v.019h.049v.029h.019v.049h.029v.019h.019v.029h.029v.019h.019v.029h.029v.019h.049v.029h.019v.019h.029v.029h.019v.019h.029v.029h.019v.049h.049v.049h.029v.019h.019v.029h.049v.019h.029v.029h.019v.019h.029v.029h.019v.019h.019l.01.078h.019v.019h.029v.029h.019v.019h.029v.029h.019v.019h.029v.029h.019v.019h.029v.049h.019v.029h.029v.019h.019v.078h.029v.019h.019v.029h.029v.049h.019v.049h.029v.019h.019v.049h.029v.029h.019v.068h.049v.049h.029v.049h.019v.098h.029v.029h.019v.049h.029v.049h.019v.049h.029v.049h.019v.049h.029v.049h.019v.049h.029v.068h.019v.049h.029v.127h.019v.049h.029v.068h.019v.078h.029v.068h.019v.049h.019c.01.029.011.049.01.08v.027l.001.021h.019v.049h.019c.012.025.011.042.01.069v.048h.019v.127h.029v.244h.019v.293h.015v.264l-.029.01v.117h-.019l.001.038c.001.038.001.038-.01.06h-.019v.078h-.019v.088l-.029.01v.068h-.019v.029h-.029v.068h-.019v.049h-.029v.078h-.019v.068h-.029v.029h-.019v.068h-.029v.029h-.019v.049h-.029v.049h-.019v.019h-.029v.049h-.049v.049h-.019v.029h-.029v.068h-.019v.029h-.029v.019h-.019v.029h-.029v.039l-.049.01v.019h-.019v.029h-.029v.019h-.019v.029H14.7v.019h-.019l-.01.029h-.019v.019h-.019v.029h-.029v.019h-.019v.029h-.049v.019h-.029v.029h-.068v.019h-.029v.029h-.019v.019h-.029v.029h-.049v.019h-.049v.029h-.068v.019h-.029v.029h-.049v.019h-.068v.029h-.029v.019h-.146v.029h-.049v.019h-.049v.029h-.098v.019h-.078v.019l-.068.01v.019h-.117v.029h-.078v.019h-.098v.029h-.117v.019h-.146v.028h-.107v.019h-.342v.019c-.027.013-.049.011-.079.01h-.058v.019h-.244v.029h-.195v.019h-.293v.029h-.293v.019h-.586v.029H10v.019h-.664v-.019h-.44v-.029h-.391v-.019h-.166v-.029h-.195v-.019h-.127v-.029h-.146v-.019h-.098v-.029h-.215v-.019H7.46v-.029h-.098v-.019h-.049v-.029h-.127v-.019l-.068-.01v-.019H7.04v-.019l-.068-.01v-.019h-.049v-.019h-.098v-.029h-.049v-.019h-.049v-.029H6.6v-.019h-.049v-.029h-.068v-.019l-.029-.01v-.019h-.049v-.019h-.049v-.029h-.049v-.019l-.068-.01v-.019H6.21v-.019h-.019v-.029h-.049v-.019l-.038.001c-.038.001-.038.001-.06-.01v-.019h-.029v-.019h-.049v-.029h-.019v-.019h-.029v-.029h-.019v-.019l-.049-.01v-.019h-.029v-.019h-.019v-.029h-.029v-.019h-.049v-.029h-.019v-.019h-.049v-.029h-.029v-.049h-.019v-.019h-.029v.005H5.56v-.049h-.029v-.019h-.019v-.029h-.029v-.049h-.049v-.019h-.019v-.049h-.029v-.029h-.019v-.098h-.029v-.068h-.019v-.029h-.036v-.068h-.019v-.078h-.029v-.098h-.019v-.068h-.029v-.127h-.019v-.478l-.156.058-.093.028-.021.006c-.114.031-.262.052-.373-.001a.2.2 0 0 1-.084-.098q-.008-.044-.006-.089v-.104c.003-.946.419-1.855 1.158-2.846l.045-.058a3 3 0 0 1 .217-.247c.082-.074.082-.074.115-.174h.029v-.049h.019v-.029h.029V6.44h.019v-.029h.049v-.019h.029v-.029h.049v-.019h.019v-.029l.025-.005a.2.2 0 0 0 .084-.064q.046-.046.096-.087l.028-.024a6 6 0 0 1 .235-.191l.019-.015a6 6 0 0 1 .253-.188l.12-.088q.088-.065.183-.12l.049-.029-.012-.013a.5.5 0 0 1-.076-.114l-.039-.049c-.019-.039-.014-.085-.01-.127a.18.18 0 0 1 .088-.091.2.2 0 0 1 .146.007c.089.05.155.129.215.21l.026-.013c.65-.331 1.357-.561 2.093-.543" fill="#7cc0f0"/><path d="m9.736 4.766.023.001c.309.008.699.045.963.224a.2.2 0 0 1 .049.107l.005.034c-.001.07-.051.134-.086.192a.4.4 0 0 0-.046.116h-.019v.039h-.019l-.004.021-.026.085-.011.029-.008.022h-.019l-.008.026a.4.4 0 0 1-.041.081c-.007.021-.007.021-.01.039h-.019l-.029.088h-.019l-.01.049h-.019l-.01.049h-.019l-.009.028c-.011.031-.011.031-.02.05h-.019l-.008.022a.3.3 0 0 1-.043.071l-.018.024-.019.025-.037.049-.017.022a.4.4 0 0 0-.034.06h-.019l-.019.049h-.019l-.005.02a.24.24 0 0 1-.068.076c-.095.08-.189.167-.27.261a3 3 0 0 1-.121.127l-.023.023-.049.049-.074.074-.048.048-.022.022a3.2 3.2 0 0 1-.56.422l-.027.017a10 10 0 0 1-.637.367l-.145.079-.026.014-.141.078q-.043.022-.087.039l-.04.018-.112.045a1 1 0 0 0-.121.053q-.032.015-.066.028l-.097.039a7 7 0 0 1-.784.27l-.163.048c-.151.046-.302.09-.456.124a3 3 0 0 0-.182.047 3 3 0 0 1-.334.072c-.028.005-.028.005-.055.015a1 1 0 0 1-.098.024l-.019.004-.06.011-.021.004a3 3 0 0 1-.258.041q-.06.008-.119.019a2 2 0 0 1-.218.024c.005-.079.032-.152.057-.226l.007-.021c.213-.631.555-1.193.965-1.714l.045-.058a3 3 0 0 1 .217-.247c.082-.074.082-.074.115-.174h.029v-.049h.019v-.029h.029v-.019h.019v-.029h.049v-.019h.029v-.029h.049v-.019h.019v-.029l.025-.005a.2.2 0 0 0 .084-.064q.046-.046.096-.087l.028-.024a6 6 0 0 1 .235-.191l.019-.015a6 6 0 0 1 .253-.188l.12-.088q.088-.064.183-.12l.049-.029-.012-.013a.5.5 0 0 1-.076-.114l-.039-.049c-.019-.039-.014-.085-.01-.127a.18.18 0 0 1 .088-.091.2.2 0 0 1 .146.007.7.7 0 0 1 .215.211l.026-.013c.65-.331 1.357-.561 2.093-.543" fill="#edecea"/><path d="M15.55 13.845a.3.3 0 0 1 .117.208.33.33 0 0 1-.073.237.307.307 0 0 1-.428.016l-.049-.058-.001.026c-.019.4-.06.929-.341 1.244l-.018.021a.34.34 0 0 1-.232.118c-.126.004-.225-.016-.32-.104q-.028-.027-.054-.055l-.017-.017c-.107-.114-.164-.282-.226-.422a2 2 0 0 0-.003.316c.006.124.004.228-.075.329a.26.26 0 0 1-.197.093.31.31 0 0 1-.24-.087.4.4 0 0 1-.069-.114l-.013.018c-.032.042-.06.079-.104.109l-.021.016a.33.33 0 0 1-.223.023.33.33 0 0 1-.189-.155.4.4 0 0 1-.027-.087l-.005-.024-.004-.018-.035.001q-.349.01-.698.009l-.001.022c-.007.09-.026.157-.094.221a.33.33 0 0 1-.239.074.32.32 0 0 1-.193-.099c-.084-.111-.076-.241-.078-.374l-.01.028c-.053.146-.138.293-.283.363a.57.57 0 0 1-.448.001l-.04-.021-.021-.011a.7.7 0 0 1-.143-.102l-.021-.014a.14.14 0 0 0-.064.044.57.57 0 0 1-.419.175.52.52 0 0 1-.368-.146c-.195-.207-.246-.497-.292-.766l-.008.034-.011.043-.005.022c-.014.055-.014.055-.024.077l-.006.052c-.026.158-.152.312-.277.407a.7.7 0 0 1-.504.113.7.7 0 0 1-.317-.162l-.029-.022a.5.5 0 0 1-.079-.089l-.013-.018a.77.77 0 0 1-.108-.583.9.9 0 0 1 .338-.56.73.73 0 0 1 .553-.106.66.66 0 0 1 .402.294 1 1 0 0 1 .049.098l.002-.022a.35.35 0 0 1 .134-.247c.072-.05.148-.052.235-.043a.32.32 0 0 1 .176.107c.053.089.059.184.067.285l.011.134.002.026c.014.231.014.231.105.434l.023-.055.013-.031a.9.9 0 0 0 .041-.362c-.003-.102-.001-.2.072-.28a.4.4 0 0 1 .291-.082.3.3 0 0 1 .176.107c.041.058.053.118.067.187.036.164.074.329.157.477l.019.01c.019-.244.036-.521-.087-.742a.3.3 0 0 1-.014-.203.32.32 0 0 1 .147-.178.34.34 0 0 1 .251-.012c.093.04.15.112.187.204.076.2.11.414.121.627l.004-.02.025-.107.006-.025c.067-.278.157-.556.404-.727a.7.7 0 0 1 .303-.098l.021-.001c.218-.006.398.089.555.232.303.287.431.723.528 1.116l.001-.023c.041-.688.041-.688.292-.924a.46.46 0 0 1 .313-.098c.154.032.26.127.346.254.191.292.191.292.191.4h.019l.004-.034q.01-.073.024-.145a2 2 0 0 0 .025-.339c.003-.106.018-.195.093-.273a.3.3 0 0 1 .224-.088c.079.01.137.034.195.088l.024.022c.015.017.015.017.015.037h.019l.001-.017a.25.25 0 0 1 .085-.186c.124-.102.247-.098.386-.024m-3.373.63a1 1 0 0 0-.104.253l-.006.022a1 1 0 0 0-.021.111l-.002.023-.002.018.192-.004.065-.001.094-.002.029-.001a1 1 0 0 0 .157-.012c-.1-.247-.1-.247-.284-.432-.05-.019-.084-.017-.117.025m-.77.779.01.029Z" fill="#8bdfea"/><path d="M4.858 13.844c.202.105.286.31.366.511a.6.6 0 0 0 .079-.121c.094-.17.206-.326.398-.39a.42.42 0 0 1 .316.051l.027.02.029.02c.153.132.177.362.193.55l.004.042.009.101.011-.03a1 1 0 0 1 .507-.556.8.8 0 0 1 .618-.017.7.7 0 0 1 .182.124l.021.018a.46.46 0 0 1 .147.308.5.5 0 0 1-.133.369c-.149.157-.335.252-.534.33.018.018.047.012.071.013a.54.54 0 0 0 .292-.099.33.33 0 0 1 .252-.041.37.37 0 0 1 .184.141.32.32 0 0 1 .019.237c-.051.136-.177.209-.304.267-.25.111-.515.138-.775.044a.96.96 0 0 1-.53-.523l-.029-.069.001.028.001.105.001.045c.002.124-.006.219-.094.317a.3.3 0 0 1-.237.085.3.3 0 0 1-.218-.111c-.097-.126-.072-.317-.074-.467l-.001-.069-.002-.167-.011.024-.04.091-.017.039c-.121.277-.121.277-.267.344a.33.33 0 0 1-.234-.003.35.35 0 0 1-.134-.095l-.016-.019a.8.8 0 0 1-.111-.235c-.015.05-.011.101-.012.153v.031c0 .058.004.11.017.166a.33.33 0 0 1-.039.249.3.3 0 0 1-.201.133.35.35 0 0 1-.267-.069c-.1-.095-.12-.248-.126-.38l-.001-.041v-.122c.001-.382.015-.924.247-1.243l.019-.029h.019v-.019l.041-.023.023-.013a.37.37 0 0 1 .312-.006" fill="#8cdfea"/><path d="m9.912 6.523.029.01-.023.026a6 6 0 0 0-.151.181l-.083.102-.12.151a4 4 0 0 1-.121.148l-.082.099a3 3 0 0 1-.145.163l-.052.057a3 3 0 0 1-.228.225l-.029.027a4 4 0 0 1-.195.168l-.049.041q-.115.093-.234.184l-.025.019a13 13 0 0 1-.525.382l-.102.071a18 18 0 0 1-.852.563l-.025.016a12 12 0 0 1-.615.356l-.091.05a13 13 0 0 1-.314.167l-.129.068a4 4 0 0 1-.494.217 1 1 0 0 0-.109.048c-.058.03-.12.047-.183.066l-.035.01c-.125.036-.284.069-.407.01a.2.2 0 0 1-.084-.098q-.008-.044-.006-.089v-.104c.001-.3.044-.593.119-.884l.023-.003.107-.015.037-.005a3 3 0 0 0 .181-.031q.057-.01.116-.017a4 4 0 0 0 .246-.042l.033-.006c.047-.006.047-.006.087-.026l.053-.009a3 3 0 0 0 .278-.058l.059-.015.029-.007.196-.049.023-.006.046-.011q.108-.028.212-.062l.107-.033.022-.007.044-.013.067-.02.196-.059q.127-.037.252-.08l.02-.007a8 8 0 0 0 .294-.108l.034-.013q.067-.026.132-.058a1 1 0 0 1 .087-.036 1 1 0 0 0 .127-.057l.063-.026c.23-.084.453-.226.665-.347l.029-.017a8 8 0 0 0 .41-.247l.017-.011.114-.075.038-.025c.21-.138.386-.305.563-.483l.064-.064.041-.041.019-.019a2 2 0 0 0 .106-.115q.035-.04.073-.076l.014-.014.035-.034" fill="#9e9d9c"/><path d="M4.8 14.001c.191.099.277.414.345.603a.1.1 0 0 0 .04.053c.029.006.029.006.058 0 .053-.041.075-.097.103-.157.203-.417.203-.417.362-.491a.3.3 0 0 1 .203.012c.085.049.132.147.159.238l.015.07.005.027c.018.109.019.217.02.327l.001.068.001.14.002.179.001.139.001.066.001.092.001.027a.18.18 0 0 1-.055.14c-.041.029-.089.025-.137.019-.049-.022-.068-.049-.089-.095-.014-.038-.013-.074-.013-.114v-.173l-.001-.158-.001-.254v-.168c0-.052-.003-.092-.042-.131-.04-.005-.04-.005-.078 0-.041.041-.065.095-.09.147l-.015.03a8 8 0 0 0-.153.337c-.108.247-.108.247-.201.287a.2.2 0 0 1-.128-.017c-.099-.073-.131-.212-.166-.324l-.057-.176-.006-.019-.018-.053-.01-.03a.1.1 0 0 0-.062-.054c-.032.001-.05.002-.074.024-.02.036-.024.073-.029.114l-.004.027-.012.086-.004.029c-.05.289-.05.289-.004.569a.2.2 0 0 1-.017.131c-.029.033-.049.051-.094.057a.2.2 0 0 1-.108-.018c-.071-.068-.083-.162-.086-.256l-.001-.168v-.03c0-.148.006-.293.028-.44l.011-.081c.064-.504.064-.504.205-.635.066-.042.127-.025.194.002" fill="#fefefe"/><path d="M12.549 14.092q.05.036.098.078l.02.017c.155.145.263.351.332.549v.029l-.025.01-.033.013-.032.013c-.028.011-.028.011-.047.032-.001.019-.001.019.002.039l.002.021c.005.022.005.022.035.038.056-.003.104-.021.156-.039l.019.088a.6.6 0 0 1-.111.04c-.033.005-.033.005-.045.018-.002.039-.002.039 0 .078.018.022.018.022.042.022a.5.5 0 0 0 .163-.022l.01.068c-.093.049-.093.049-.137.06-.032.006-.032.006-.049.038.001.035.001.035.01.068.035.023.041.021.081.013a.5.5 0 0 0 .124-.042.3.3 0 0 1 .023.127l.001.035a.17.17 0 0 1-.057.115.24.24 0 0 1-.142.016.16.16 0 0 1-.09-.093.6.6 0 0 1-.022-.114.1.1 0 0 0-.035-.066c-.028-.006-.028-.006-.06-.004h-.037l-.041.001h-.042l-.113.001-.089.001q-.221.001-.443.007l-.036.001-.033.001-.029.001c-.025.001-.025.001-.053.012l-.001.036-.002.047-.001.023a.26.26 0 0 1-.046.147c-.043.038-.086.045-.143.043a.14.14 0 0 1-.094-.058c-.029-.044-.03-.079-.027-.132l.031.001.04.001.02.001c.034.001.052-.001.079-.021.017-.02.017-.02.019-.046-.005-.028-.011-.035-.034-.053-.02-.005-.02-.005-.042-.005a.4.4 0 0 1-.104-.024v-.078h.098a.3.3 0 0 0 .087-.011l.002-.042.001-.024c-.001-.022-.001-.022-.014-.039-.025-.017-.046-.017-.077-.018a.3.3 0 0 1-.088-.013l.01-.078.031-.003.04-.004.02-.002c.032-.004.051-.006.074-.029.012-.02.012-.02.009-.045a.1.1 0 0 0-.038-.053c-.029-.006-.029-.006-.06-.007l-.032-.002-.024-.001c-.004-.074.012-.141.029-.213l.004-.019c.054-.222.145-.452.345-.582.189-.104.387-.076.568.033m-.372.383a1 1 0 0 0-.104.253l-.006.022a1 1 0 0 0-.021.111l-.002.023-.002.018.192-.004.065-.001.094-.002.029-.001a1 1 0 0 0 .157-.012c-.1-.247-.1-.247-.284-.432-.05-.019-.084-.017-.117.025m-1.087-.345c.096.059.129.186.154.289l.013.059.006.028q.027.129.026.26v.057l-.022-.001-.029-.001-.029-.001c-.026.001-.026.001-.044.016-.018.026-.016.044-.011.075.028.04.061.048.107.058l.039.01-.01.107-.049-.019c-.035-.005-.035-.005-.068 0-.021.015-.021.015-.029.039.001.033.003.051.025.075q.05.026.102.042l-.019.088-.04-.015a.2.2 0 0 0-.106-.015c-.019.01-.019.01-.029.029-.006.029-.006.029 0 .058.031.032.067.05.107.068a.35.35 0 0 1-.171.166.47.47 0 0 1-.327-.029.6.6 0 0 1-.206-.175c-.018-.023-.018-.023-.052-.031-.035-.002-.035-.002-.059.019l-.04.051a.5.5 0 0 1-.297.204.43.43 0 0 1-.329-.084c-.013-.013-.013-.013-.013-.033l.043-.029c.033-.019.033-.019.054-.049.002-.04.002-.04-.01-.078-.041-.012-.064-.017-.102.003l-.045.033c-.018.013-.018.013-.038.013l-.039-.098c.085-.049.085-.049.107-.049v-.098a.22.22 0 0 0-.156.01l-.015-.057-.008-.032c-.005-.029-.005-.029.004-.058.018-.009.018-.009.04-.017l.022-.007.017-.005c.012-.048.012-.048-.004-.092-.037-.022-.071-.018-.114-.015a3 3 0 0 1-.03-.261l-.002-.034c-.013-.179-.013-.179.01-.227.041-.045.073-.067.134-.071.053.002.08.019.118.055.031.04.037.08.04.13l.002.036.002.038c.014.406.014.406.187.761.029.018.051.016.084.01.065-.025.093-.06.121-.121l.01-.021a1 1 0 0 0 .084-.482l-.001-.059-.001-.035c.006-.051.032-.08.069-.114a.2.2 0 0 1 .151-.009c.039.02.058.042.077.081l.013.059c.067.357.067.357.27.644a.2.2 0 0 0 .099.03c.043-.017.056-.046.075-.086.07-.179.051-.409.023-.595l-.005-.031a1 1 0 0 0-.078-.253c-.021-.047-.029-.088-.01-.138.044-.087.115-.103.204-.079" fill="#fdfefe"/><path d="M7.46 14.228a.45.45 0 0 1 .128.147l.018.031a.33.33 0 0 1-.027.262c-.146.251-.457.347-.717.43-.025.007-.025.007-.036.019-.008.051-.008.051.013.096a.48.48 0 0 0 .312.124l.022.001.054.003.001.031a.6.6 0 0 0 .057.262c-.138.046-.329-.002-.455-.061a.83.83 0 0 1-.417-.503.75.75 0 0 1 .091-.579q.032-.045.068-.088l.014-.019a.85.85 0 0 1 .337-.235l.024-.011c.172-.064.366-.009.512.088" fill="#fefefe"/><path d="m8.848 14.268.023.011a.5.5 0 0 1 .251.301.7.7 0 0 1-.01.401l-.019.029-.007.058c-.019.132-.111.239-.212.322a.56.56 0 0 1-.377.098.56.56 0 0 1-.351-.221.63.63 0 0 1-.097-.487.74.74 0 0 1 .295-.471c.147-.09.345-.123.504-.041" fill="#fdfefe"/><path d="M14.003 14.348c.15.118.23.335.303.506l.032.073.019.045q.026.063.066.116c.04.007.054.003.088-.019a1 1 0 0 0 .068-.205c.065-.001.065-.001.098.01l.048.003.028.001.029.001.029.001.071.003a.8.8 0 0 1-.049.2l-.012.034c-.112.312-.112.312-.254.383a.3.3 0 0 1-.199-.002.4.4 0 0 1-.062-.048l-.019-.016c-.13-.116-.19-.3-.259-.456l-.075-.165-.01-.022c-.022-.046-.022-.046-.056-.082-.035-.003-.035-.003-.068.01a.4.4 0 0 0-.045.159l-.004.023a2 2 0 0 0-.019.293l.001.064.001.099.001.096.001.03c0 .086 0 .086-.032.124a.2.2 0 0 1-.15.043c-.049-.009-.07-.037-.102-.074-.041-.099-.024-.231-.024-.337v-.028c0-.147.006-.289.032-.434l.004-.023a.66.66 0 0 1 .201-.396.27.27 0 0 1 .322-.008" fill="#fefefe"/><path d="M15.568 14.458a.35.35 0 0 1 .133.237q.005.057.006.115l.002.054.003.084c.005.154.018.304.061.452a.36.36 0 0 1-.008.261.32.32 0 0 1-.188.155.36.36 0 0 1-.277-.056.5.5 0 0 1-.117-.232l-.007-.03a3.3 3.3 0 0 1-.069-.645l-.001-.035c-.004-.119-.005-.213.072-.31a.31.31 0 0 1 .39-.051" fill="#8bdfea"/><path d="M13.485 7.098c.098.057.151.14.187.246.008.085.012.161-.04.234a.3.3 0 0 1-.175.098h-.049l.004.017c.024.105.029.199-.024.295-.042.064-.099.091-.168.121a.4.4 0 0 1-.291-.062.33.33 0 0 1-.098-.156q-.002-.057.003-.113c.004-.073.004-.073-.021-.14-.023-.019-.023-.019-.047-.034-.047-.033-.071-.097-.081-.152-.008-.111 0-.189.072-.276.047-.05.09-.08.159-.087a.27.27 0 0 1 .168.041c.023.014.023.014.06.011q.025-.013.049-.029a.38.38 0 0 1 .292-.013" fill="#f9fdfc"/><path d="M12.609 10.273c.119-.004.237.004.356.015l.022.002a.5.5 0 0 1 .157.023l.069.003a.33.33 0 0 1 .165.046l.03.017c.058.036.106.067.136.129a.16.16 0 0 1-.009.108.2.2 0 0 1-.088.078.4.4 0 0 1-.146-.013 2 2 0 0 0-.201-.032l-.03-.004a3 3 0 0 0-.349-.021h-.112l-.115-.001a1.4 1.4 0 0 0-.365.032l-.054.012-.048.012-.052.013-.026.006-.069.016-.042.009-.02.004a1 1 0 0 0-.098.029.5.5 0 0 1-.331.017.15.15 0 0 1-.069-.079.2.2 0 0 1 .014-.13c.12-.126.353-.151.514-.186l.068-.015a3 3 0 0 1 .251-.038 4 4 0 0 0 .187-.027 2 2 0 0 1 .255-.024m-3.029.03.05.008.071.011q.068.011.136.019c.172.022.34.068.505.118l.036.011a.6.6 0 0 1 .149.067v.019h.019a.15.15 0 0 1 .019.117.2.2 0 0 1-.039.078c-.021.007-.021.007-.039.01v.019a.8.8 0 0 1-.382-.04q-.082-.025-.165-.045l-.034-.009a1.7 1.7 0 0 0-.432-.064h-.112l-.114-.001q-.201-.002-.4.02-.045.004-.091.006a1 1 0 0 0-.152.026c-.136.034-.136.034-.187.01a.17.17 0 0 1-.078-.098c-.007-.049-.005-.076.023-.118a.46.46 0 0 1 .281-.153l.053-.004.057-.004.028-.002.11-.012a2.4 2.4 0 0 1 .689.01" fill="#5290d9"/><path d="m10.931 5.281.031.003q.129.012.258.028v.019h.244v.029h.078v.019h.098v.029h.068v.019h.078v.029h.049v.019h.068v.029h.078v.019h.068v.029h.068v.019h.029V5.6h.078v.019h.098v.029h.049v.019l.049.01v.019h.049v.019h.019v.029h.078v.019h.019v.029h.078v.019h.019v.029h.049v.019h.029v.029h.088v.019h.029v.029h.049v.019h.029v.029h.049v.019h.019v.029h.049v.019h.029v.029h.049v.019h.039v.029h.029v.019h.029v.029h.049v.019h.049v.029h.019v.019h.049v.029h.029v.019h.019v.029h.029v.019h.019v.029h.029v.019h.019v.029h.029v.019h.068v.029h.029v.019h.019v.029h.029v.019h.049v.029h.019v.049h.029v.019h.019v.029h.029v.019h.019v.029h.029v.019h.049v.029h.019v.019h.029v.029h.019v.019h.029v.029h.019v.049h.049v.049h.029v.019h.019v.029h.049v.019h.029v.029h.019v.019h.029v.029h.019v.019h.019l.01.078h.019v.019h.029v.029h.019v.019h.029v.029h.019v.019h.029v.029h.019v.019h.029V7.4h.019v.029h.029v.019h.019v.078h.029v.019h.019v.029h.029v.049h.019v.049h.029v.019h.019v.049h.029v.029h.019v.068h.049v.049h.029v.049h.019v.098h.029v.029h.019v.049h.029v.049h.019v.049h.029v.049h.019v.049h.029v.049h.019v.049h.029v.068h.019v.049h.029v.127h.019v.049h.029v.068h.019v.078h.029v.068h.019v.049h.019c.01.029.011.049.01.08v.027l.001.021h.019v.049h.019c.013.026.01.045.008.075l-.001.033-.002.035-.001.035-.004.086-.019.01v-.156h-.029l-.01-.098h-.01V9.09h-.029v-.098h-.019v-.049h-.029v-.098h-.019l-.01-.078h-.019v-.068h-.019v-.066h-.029v-.068h-.019l-.01-.078-.019.01v-.039h-.019v-.049h-.001l-.01-.058h-.01l-.01-.058-.019.01v-.058h-.019v-.049h-.029a.3.3 0 0 1-.029-.098h-.019V8.03h-.019l-.01-.068-.039-.01v-.049h-.029v-.019h-.019l-.01-.068-.039-.01v-.049h-.029a.12.12 0 0 1-.019-.078h-.029V7.64h-.019v-.029h-.029v-.049h-.019v-.049h-.029v-.029h-.019v-.039h-.029v-.029H14.5c-.016-.013-.016-.013-.029-.029v-.019h-.019c-.016-.013-.016-.013-.029-.029V7.32h-.019c-.016-.013-.016-.013-.029-.029v-.019h-.019v-.068l-.029-.01v-.019h-.019l-.01-.029h-.019v-.019h-.029c-.016-.013-.016-.013-.029-.029v-.019h-.019V7.06l-.029-.01v-.019h-.049l-.008-.019c-.01-.023-.01-.023-.041-.03v-.049h-.019v-.049h-.049v-.049h-.049v-.049h-.049v-.019h-.029l-.019-.019-.029-.01v-.029h-.019V6.69h-.029v-.049h-.019v-.019l-.029-.01v-.019h-.019v-.019l-.049-.01v-.019h-.029v-.019h-.019v-.029h-.049v-.03l-.049-.01v-.019h-.029v-.049h-.049V6.36h-.019v-.019h-.029v-.019h-.019v-.029h-.049v-.019l-.029-.01v-.019h-.049v-.019h-.019v-.029h-.049v-.019h-.029l-.019-.019-.029-.01V6.13h-.019v-.029h-.049v-.019l-.049-.01v-.019h-.029v-.019h-.019v-.029h-.049v-.019l-.078-.029v-.019h-.058l-.01-.029h-.049V5.89l-.049-.01v-.019h-.029v-.019l-.021-.004a.4.4 0 0 1-.076-.026v-.019l-.068-.01v-.019h-.049v-.019h-.029v-.029h-.049v-.019l-.049-.01v-.019h-.098v-.01l-.068-.019V5.62h-.049v-.019h-.049v-.029h-.098v-.019l-.049-.01v-.019h-.049l-.01-.019c-.021-.004-.021-.004-.044-.006l-.024-.002-.02-.003v-.019h-.098v-.019h-.049v-.029h-.098v-.019h-.088l-.01-.029h-.018l-.079.001-.028.001h-.05c-.02-.002-.02-.002-.04-.022l-.093.001c-.037.001-.051.001-.083-.02-.025-.003-.025-.003-.052-.003h-.155a.3.3 0 0 0-.095.032c.006-.023.006-.023.019-.049a.44.44 0 0 1 .238-.021" fill="#90e0ea"/><path d="m12.332 14.308.032.018.02.011c.178.105.269.333.343.516l.02.048a.2.2 0 0 1 .007.099.1.1 0 0 1-.084.034l-.027.001-.029.001-.031.001-.1.003-.068.002-.197.006-.027.001-.148.003-.035.001h-.059c-.031-.006-.043-.019-.063-.044a1 1 0 0 1 .201-.657c.064-.072.158-.071.246-.045m-.155.167a1 1 0 0 0-.104.253l-.006.022a1 1 0 0 0-.021.111l-.002.023-.002.018.192-.004.065-.001.094-.002.029-.001a1 1 0 0 0 .157-.012c-.1-.247-.1-.247-.284-.432-.05-.019-.084-.017-.117.025" fill="#8cdfea"/><path d="M15.471 14.571c.041.028.07.061.081.11q.004.04.005.079l.001.03.004.094c.008.19.022.375.074.559a.23.23 0 0 1-.019.174.15.15 0 0 1-.071.056.2.2 0 0 1-.131-.017.25.25 0 0 1-.079-.131l-.006-.021c-.062-.211-.069-.435-.076-.653l-.004-.076c-.006-.116-.006-.116.035-.165.055-.052.113-.063.185-.039" fill="#fdfefe"/><path d="m6.172 6.387.01.019-.019.043a.57.57 0 0 0 .031.419.53.53 0 0 0 .304.277.5.5 0 0 0 .098.023.2.2 0 0 1 .123.058c.023.038.024.073.019.117a.18.18 0 0 1-.088.088.5.5 0 0 1-.224-.029l-.021-.005c-.154-.041-.287-.163-.38-.288l-.016-.021a.8.8 0 0 1-.131-.331l-.004-.022a.1.1 0 0 1 .021-.08l.061-.064h.019l.01-.029c.014-.014.014-.014.033-.029q.08-.07.153-.146" fill="#767573"/><path d="M8.879 14.581a.2.2 0 0 1 .084.096l.002.02.003.029c-.004.155-.108.266-.208.372l-.013.017c-.034.025-.078.013-.117.007-.12-.025-.26-.063-.338-.166a.2.2 0 0 1-.036-.151c.016-.048.052-.078.091-.107a.24.24 0 0 1 .166 0 .3.3 0 0 1 .082.058l.011-.024c.034-.072.059-.115.129-.155a.24.24 0 0 1 .146.004" fill="#8cdfea"/><path d="m5.234 10.029-.01.01-.002.042-.001.027-.001.03-.001.03-.002.096-.001.065-.003.159h.019c.014.028.011.053.01.084v.062h.019v.068h.019l.01.078h.019v.098l.029.01v.039h.019v.068l.029.01v.068h.019v.049h.019l.01.049h.019v.049l.049.019v.029h.029v.019h.019v.029h.019v.019h.029v.049l.029.01v.019h.019v.049h.029v.019h.019v.029h.049v.019h.049v.029l.029.01.019.01v.029h.049v.019h.019v.029h.029v.019h.019v.029h.029v.019h.029v.029l.022-.001a.12.12 0 0 1 .066.021v.029h.078v.019h.029v.029l.022-.001a.12.12 0 0 1 .066.021v.029h.058v.019h.049v.029h.068v.019h.029v.029h.039v.019l.039.01v.01l.088.01v.019h.098v.029h.058v.01l.068.01v.029h.078v.01l.068.01v.029h.068v.019h.058l-.01.019.107.01v.01l.049.01v.019l.117.01v.01l.117.01v.029h.058v.01l.185.01v.029h.156v.01l.137.01v.029h.156v.01l.017.001.078.003.028.001.026.001.024.001c.022.004.022.004.051.023.032.004.032.004.069.004l.02.001.064.001.043.001.106.002v.019h.303l-.01.019a5 5 0 0 1-.382.01h-.054l-.13-.001v-.019h-.166v-.029h-.195v-.019H8v-.029h-.146v-.019h-.098v-.029h-.215v-.019h-.098v-.029h-.098v-.019h-.049v-.029h-.127v-.019l-.068-.01v-.019h-.078v-.019l-.068-.01v-.019h-.049v-.019h-.098v-.029h-.049v-.019H6.71v-.029h-.127v-.019h-.049v-.029h-.068v-.019l-.029-.01V12h-.049v-.019h-.049v-.029H6.29v-.019l-.068-.01v-.019h-.029v-.019h-.019v-.029h-.049v-.019l-.038.001c-.038.001-.038.001-.06-.01v-.019h-.029v-.019h-.049v-.029H5.93v-.019h-.029v-.029h-.019v-.019l-.049-.01v-.019h-.029v-.019h-.019v-.029h-.029v-.019h-.049v-.029h-.019v-.019h-.049v-.029H5.61v-.049h-.019v-.019h-.029v-.029h-.019v-.057h-.029v-.019h-.019v-.029h-.029v-.049h-.049v-.019h-.019v-.049h-.029v-.029H5.35v-.098h-.029v-.068h-.019v-.029h-.019v-.068h-.019v-.078h-.029v-.098h-.019v-.068h-.029v-.127h-.019l-.003-.207-.001-.07-.001-.101-.001-.032q-.001-.039.005-.078c.037-.035.037-.035.068-.019" fill="#92e1eb"/><path d="M7.539 5.928q.049.03.091.065.045.035.092.069l.04.03.113.084.158.117.02.015c.086.064.086.064.097.1.007.078.007.078-.017.115l-.029.01-.019.029a.2.2 0 0 1-.161-.032 3 3 0 0 1-.151-.115l-.07-.056-.017-.014-.098-.073-.115-.083-.016-.012c-.041-.031-.076-.065-.087-.116.001-.043.006-.073.034-.106.043-.029.086-.043.137-.029" fill="#787775"/><path d="M7.057 6.376h.042v.019l.018.003c.071.023.116.145.151.205l.036.063.016.028.033.053v.039h.019l.058.1.017.029.016.028.015.025c.026.05.03.104.022.16a.15.15 0 0 1-.068.068c-.021.003-.021.003-.047.004l-.025.001c-.042-.008-.062-.036-.086-.071l-.034-.058-.013-.022-.113-.201-.083-.148c-.058-.103-.058-.103-.058-.13h-.019a.3.3 0 0 1-.01-.127c.027-.05.058-.07.114-.069" fill="#777674"/><path d="M7.373 6.191c.06.042.102.1.147.157l.044.054.065.08q.053.066.108.13c.121.141.121.141.116.235l-.002.019h-.019l-.001.018c-.009.021-.009.021-.04.038a.2.2 0 0 1-.106.012.2.2 0 0 1-.087-.081 1 1 0 0 0-.082-.106 4 4 0 0 1-.132-.161l-.014-.018-.027-.035a1 1 0 0 0-.087-.096l-.029-.049-.015-.013c-.025-.029-.019-.061-.018-.097.006-.042.022-.058.053-.085.044-.015.084-.021.127-.001" fill="#787775"/><path d="m12.586 6.565.07.046.029.019v.019l.017.007a.3.3 0 0 1 .071.062l.017.018c.082.089.084.159.08.275h-.019l-.007.017a.13.13 0 0 1-.062.061.27.27 0 0 1-.205-.039 2 2 0 0 1-.137-.127v-.019l-.018-.002c-.029-.01-.034-.023-.048-.05l-.013-.023c-.009-.022-.009-.022-.009-.051h-.019a.23.23 0 0 1 .001-.155.225.225 0 0 1 .252-.057" fill="#f7fdfc"/><path d="M12.476 7.107a.36.36 0 0 1 .16.158c.003.03.003.03.002.062l-.001.032-.001.024h-.019l-.005.021c-.022.041-.05.059-.093.076-.14.026-.295-.052-.41-.127-.043-.038-.083-.082-.091-.14-.001-.056.003-.09.042-.133.127-.096.284-.033.416.028" fill="#f9fdfc"/><path d="M8.195 5.141a.54.54 0 0 1 .252.288.17.17 0 0 1-.029.127c-.038.035-.063.05-.115.052l-.025.001c-.048-.008-.077-.034-.108-.071l-.042-.061a.23.23 0 0 0-.154-.084l-.037-.007-.036-.006-.034-.006c-.049-.006-.096-.003-.145-.001a.2.2 0 0 1-.094-.032v-.019a4 4 0 0 1 .294-.149l.037-.018c.094-.045.143-.057.238-.014" fill="#757472"/><path d="m12.554 7.565.044.022.023.012c.132.07.132.07.162.125a.2.2 0 0 1-.012.126c-.034.04-.067.067-.121.072-.116.003-.255-.012-.346-.09l-.028-.023c-.034-.041-.054-.079-.051-.133a.18.18 0 0 1 .069-.107c.063-.044.19-.03.259-.003" fill="#f8fdfc"/><path d="m15.371 10.195.019.01.001.057.001.032c-.002.028-.002.028-.021.047-.004.019-.004.019-.005.04-.004.038-.004.038-.014.048l-.004.034c-.005.035-.005.035-.025.054l-.006.056a.4.4 0 0 1-.026.082c-.017.043-.018.08-.017.126h-.019v.049h-.029v.078h-.019v.068h-.029v.029h-.019v.068h-.029v.029h-.019v.049h-.029v.049h-.019v.019h-.029v.049h-.049v.049h-.019v.029h-.029v.068h-.019v.029h-.029v.019h-.019v.029h-.029v.039l-.049.01v.019h-.019v.029h-.029v.019h-.019v.029h-.029v.019h-.019l-.01.029h-.019v.019h-.019v.029H14.6v.019h-.019v.029h-.049v.019h-.029v.029h-.068v.019h-.029v.029h-.019v.019h-.029v.029h-.049v.019h-.049v.029h-.068v.019h-.029v.029h-.049v.019h-.068v.029h-.029v.019h-.146v.029h-.049v.019h-.049v.029h-.098v.019h-.078v.019l-.068.01v.019c-.124.002-.124.002-.176-.01v-.019h.078v-.019h.098v-.029h.049v-.019h.098v-.029h.068v-.019h.078v-.029h.117v-.019l.034-.004.034-.006.01-.019h.049v-.019h.019v-.029h.078v-.019l.019-.004.02-.006.01-.019h.019v-.019h.049v-.029h.049v-.019h.029v-.029h.019v-.019h.078v-.029h.019v-.019h.049v-.029h.029v-.019h.019v-.029h.029v-.019h.019v-.029h.029v-.019h.019v-.029h.029v-.019h.019v-.029h.029v-.019h.049v-.049h.019v-.029h.029v-.019h.019v-.029h.029v-.049h.019v-.049h.029v-.019h.019v-.029h.029v-.049h.019v-.019h.029v-.049h.019v-.029h.019l.01-.049h.019v-.049h.029v-.049h.019v-.019h.029v-.097h.019v-.068l.029-.01v-.049h.019v-.049h.029v-.068h.019v-.098h.029v-.098h.019v-.078h.029z" fill="#8ddfea"/><path d="M13.121 6.566c.039.025.065.061.092.098q.027.034.057.067c.05.058.052.11.053.184a.15.15 0 0 1-.033.077l-.019.028c-.046.033-.092.025-.147.021v-.019l-.022-.007c-.081-.037-.147-.146-.182-.226a.24.24 0 0 1 .005-.182c.057-.062.116-.07.194-.04" fill="#f8fdfc"/><path d="M7.256 14.449c.019.013.019.013.039.043.004.028.004.028 0 .058-.099.126-.314.223-.469.254-.039-.003-.053-.005-.082-.032-.015-.027-.015-.027-.013-.05.04-.138.162-.223.281-.289a.27.27 0 0 1 .244.016" fill="#8cdfea"/><path d="M7.666 15.185a.2.2 0 0 1 .117.107c.004.055.002.09-.029.137a.75.75 0 0 1-.283.166c-.034-.004-.04-.01-.065-.037a.16.16 0 0 1-.033-.115v-.077l.001-.064.032-.016.042-.021.021-.01q.051-.025.099-.053a.14.14 0 0 1 .099-.017" fill="#fdfefe"/><path d="M13.242 12.246h.098l-.019.049h-.098v.029h-.117v.019h-.146v.029h-.107v.019h-.342v.019c-.027.013-.049.011-.079.01h-.058v.019h-.244v.029h-.195v.019h-.293v.029h-.293v.019h-.586v-.01l.025-.002.033-.002.033-.002c.026 0 .026 0 .036-.013l.043-.005c.033-.003.033-.003.064-.015l.042-.001a1.1 1.1 0 0 0 .296-.04.4.4 0 0 1 .16-.017l-.019.019.283.01v-.019h.244l.01-.029h.185v-.019l.293-.01v-.019h.244v-.019h.146l.01-.029.117-.01v-.01l.166-.01v-.019l.068-.01z" fill="#94e1eb"/><path d="M13.988 7.916c.033.001.043.002.07.021.014.021.014.021.014.051l.026.002q.059.013.101.056a.2.2 0 0 1-.029.146c-.039.026-.06.022-.107.019l-.019-.01-.018.029c-.021.03-.021.03-.04.039a.3.3 0 0 1-.088 0c-.032-.025-.046-.04-.058-.078-.004-.033-.004-.033 0-.068l.024-.024c.029-.024.029-.024.025-.064l-.001-.02a.104.104 0 0 1 .102-.101" fill="#f7fdfc"/><path d="M14.853 14.082a.18.18 0 0 1 .098.078.2.2 0 0 1 .011.071v.074l-.001.061a.5.5 0 0 1-.206.031l-.028-.001-.068-.001-.002-.094-.001-.027a.2.2 0 0 1 .046-.152c.047-.044.088-.05.152-.04" fill="#fcfefe"/><path d="M15.43 13.947a.23.23 0 0 1 .087.096c.005.06-.001.108-.039.156-.045.034-.082.035-.137.034-.044-.007-.07-.028-.097-.063-.027-.044-.026-.087-.019-.137a.17.17 0 0 1 .097-.091.14.14 0 0 1 .108.004" fill="#fdfefe"/><path d="M14.941 14.521q.002.07-.003.14l-.002.024c-.006.025-.014.034-.034.05a.5.5 0 0 1-.264-.01l-.01-.01q.001-.039.004-.077l.001-.022c.004-.054.004-.054.014-.076.025-.004.025-.004.058-.006l.036-.002.037-.002.037-.002c.089-.006.089-.006.125-.006" fill="#fcfefe"/><path d="M9.248 12.539h.918l-.019.029-.074.002-.021-.001-.051-.001v.019h-.664v-.019l-.033.002-.035-.002z" fill="#a3e5ee"/><path d="M14.004 7.671c.029.004.029.004.046.017.037.052.039.101.032.163-.016.031-.016.031-.039.049-.032.003-.032.003-.058 0a.23.23 0 0 1-.039-.185c.018-.031.022-.038.058-.043" fill="#f0fbfb"/><path d="M13.822 7.743c.047.014.067.039.094.079.016.031.013.064.01.098-.011.019-.011.019-.029.029-.028.007-.028.007-.058 0a.25.25 0 0 1-.081-.147c.003-.029.003-.029.013-.048.019-.01.019-.01.051-.012" fill="#f4fcfc"/><path d="M13.762 7.923c.042.007.045.012.069.044.028.042.04.067.035.118-.032.021-.041.025-.078.019-.019-.017-.019-.017-.037-.038l-.017-.021c-.025-.034-.026-.056-.024-.097.019-.019.019-.019.051-.026" fill="#f3fcfb"/><path d="M11.216 12.46h.063a.25.25 0 0 1-.117.032l-.029.001-.06.002-.029.001-.026.001c-.022.001-.022.001-.041.012l-.065.002h-.02l-.067.001-.047.001-.099.001-.1.001a10 10 0 0 1-.616-.007v-.01h.032l.298-.003.153-.001.148-.001.056-.001.079-.001h.023a.5.5 0 0 0 .109-.012l.047-.003.026-.001.027-.001c.073-.003.073-.003.145-.01q.055-.007.11-.005" fill="#84d0ec"/><path d="m15.371 10.195.019.01.001.057.001.032c-.002.028-.002.028-.021.047-.004.019-.004.019-.005.04-.004.038-.004.038-.014.048l-.004.034c-.005.035-.005.035-.025.054q-.004.028-.006.057a.4.4 0 0 1-.062.149l-.019.058-.015.032a.3.3 0 0 0-.021.106l-.003.018-.019.01v-.117h.019v-.068l.029-.01v-.049h.019v-.049h.029v-.068h.019v-.098h.029v-.098h.019v-.078h.029z" fill="#a2e5ee"/><path d="M14.161 7.799c.029.004.029.004.048.023.003.026.003.026.002.057v.031a.13.13 0 0 1-.022.068c-.033.002-.033.002-.068 0-.022-.033-.022-.044-.022-.082l-.001-.028c.006-.043.019-.064.063-.069" fill="#f5fcfc"/><path d="m6.211 6.308.039.01-.07.07-.063.063-.038.039-.019.02-.019.019-.017.017-.056.045v-.058h.029v-.049h.019v-.029h.029v-.019h.019v-.029h.049v-.019h.029v-.029h.049V6.34h.019z" fill="#8ad9e4"/><path d="M12.49 12.363h.254v.019c-.024.012-.041.011-.068.011h-.091l-.075-.001v.019c-.062.031-.151.004-.215-.01v-.01l.195-.01z" fill="#a4e5ee"/><path d="M12.276 5.625h.049v.029h.049v.019l.049.01v.019h.049v.019h.019v.029h.078v.019h.019v.029l.029.01c-.027.002-.027.002-.058 0l-.039-.039c-.036-.008-.036-.008-.068-.01V5.74l-.034-.013c-.035-.016-.035-.016-.044-.035q-.033-.012-.068-.02c-.02-.009-.02-.009-.028-.03z" fill="#8bdfea"/><path d="M5.488 11.25h.019v.019h.029v.019h.019v.029h.019v.019h.029v.049l.029.01v.019h.019v.049h.029v.019h.019v.029h.049v.019h.019v.019a.22.22 0 0 1-.137-.078l-.019-.068-.029-.01v-.039l-.017-.007c-.036-.02-.066-.045-.079-.084z" fill="#a5e6ee"/><path d="m14.092 7.832.019.01v.082c-.001.025-.001.025.011.045l.058.01-.029.01v.019c-.054-.009-.054-.009-.078-.019l-.009-.024-.01-.024a.4.4 0 0 0-.088-.019c.029-.019.029-.019.058-.028.035-.014.048-.03.069-.06" fill="#95e1eb"/><path d="M11.075 12.489h.148l.124.001v.019l-.032.001-.117.003-.051.001-.073.002-.023.001c-.035-.002-.035-.002-.065.012l-.054.001h-.053l.01-.019c.019-.004.019-.004.043-.005.049-.004.092-.015.143-.015" fill="#a9e6f0"/><path d="M13.721 6.533h.019v.019h.049v.029h.019v.049h.029v.019h.019v.029h.029v.019h.019v.029h.029l.01.029c-.059-.01-.085-.032-.123-.077a.13.13 0 0 1-.023-.059h-.029V6.59h-.019v-.019h-.029z" fill="#8cdfea"/><path d="M6.094 11.807h.098v.019h.029v.029l.022-.001a.12.12 0 0 1 .066.021v.029h.058v.019h.019v.019l-.043-.008-.024-.004-.02-.007-.01-.029c-.017-.006-.017-.006-.039-.01l-.056-.015-.029-.008-.022-.006v-.029l-.049-.01z" fill="#a4e5ee"/><path d="m12.247 5.633.028.001.01.029.021.004a.4.4 0 0 1 .076.026v.019l.034.008.035.011.01.019.033.009c.033.009.045.014.065.04l-.019.01-.029-.01V5.78l-.068-.01v-.019h-.049v-.019h-.029v-.029h-.049v-.019l-.049-.01v-.019h-.068c.019-.019.019-.019.05-.021" fill="#a0e4ed"/><path d="M14.492 7.373h.019l.008.024.012.025.029.01.019.058.029.01a.16.16 0 0 1 .019.088l.029.01c.019.029.019.029.019.058h-.019v-.019h-.019v-.029h-.029v-.049h-.019V7.51h-.029v-.029h-.019v-.039h-.029v-.029h-.019z" fill="#a4e6ee"/><path d="M8.711 8.135c-.025.025-.044.026-.079.034l-.037.007-.039.008-.038.008-.109.022-.032.006-.029.006-.025.005a.13.13 0 0 1-.061-.007l.058-.049.019.01-.01.019.024-.005a6 6 0 0 1 .218-.043c.111-.02.111-.02.138-.019m5.81 2.842.019.019-.017.02c-.023.028-.023.028-.038.06-.029.051-.071.092-.111.135l-.035.04a2 2 0 0 1-.112.116l-.019-.01.023-.023c.111-.109.211-.223.289-.358" fill="#82cded"/><path d="m13.916 7.92.019.019-.019.024a.1.1 0 0 0-.019.074c-.001.038-.001.038-.025.062l-.024.015-.01-.019.019-.01c.008-.06-.018-.098-.049-.146l.059.001c.03.002.03.002.048-.021" fill="#95e1eb"/><path d="M13.926 12.051h.068c-.013.027-.033.032-.059.043a.2.2 0 0 1-.077.006v.029l-.098-.01V12.1h.049v-.029h.117z" fill="#99e2ec"/><path d="M11.719 5.43h.068v.029h.049v.019h.068v.029h.078l.01.029a.3.3 0 0 1-.127-.019v-.019l-.024-.006-.032-.008-.032-.007c-.029-.008-.029-.008-.058-.028z" fill="#8bdfea"/><path d="M12.666 5.801v.019h.019l.019.058.049.01v.01h-.068v-.019l-.049-.01V5.85h-.029v-.019l-.049-.01v-.01a.5.5 0 0 1 .107-.01" fill="#a1e5ee"/><path d="M14.785 11.465h.039a.2.2 0 0 1-.029.068c-.035.012-.035.012-.068.019v.019h-.029v.029h-.019l-.008.019c-.011.02-.011.02-.03.03v-.039h.019v-.029h.029v-.019h.019v-.029h.029v-.019h.049z" fill="#a9e7ef"/><path d="m12.774 7.705.019.01.01.068h.019v-.058h.01v.166h-.01l-.019-.068-.018.028a.3.3 0 0 1-.051.06l-.029-.01.045-.035c.022-.021.023-.041.024-.071v-.064z" fill="#b2eaf0"/><path d="M15.195 8.682h.029v.049h.029v.068h.019v.078c-.029-.019-.029-.019-.036-.05l-.003-.028h-.039V8.78h.019z" fill="#8bdfea"/><path d="M11.27 5.342h.107l.01.019a.4.4 0 0 1 .166.039v.01h-.088v-.019h-.088l-.01-.029h-.098z" fill="#b2e9f1"/><path d="M6.729 12.09h.029l.01.019.068.01v.019h.049l.01.019.029.019h-.098v-.029h-.049v-.019h-.049z" fill="#8bdfea"/><path d="m13.789 11.67.019.01a1.4 1.4 0 0 1-.195.127l-.059.032-.048.026v-.029l.014-.008.067-.037.024-.013a2 2 0 0 0 .158-.097z" fill="#83ceed"/><path d="m5.361 10.996.029.01v.068h.019v.049h.019l.01.049h.019v.068l-.019-.01v-.039l-.019-.01-.019-.039-.015-.026a.4.4 0 0 1-.024-.12" fill="#a0e4ed"/><path d="M5.791 11.563q.03.007.058.019v.029h.049v.019h.019v.029h.029v.039h-.019v-.019l-.029-.01v-.019l-.018-.004c-.021-.006-.021-.006-.051-.026v-.019l-.039-.019z" fill="#a1e5ee"/><path d="m13.271 6.221.039.01v.019l.031.007c.039.011.059.031.086.062l.018.017c.012.013.012.013.012.033l-.039-.01V6.34h-.029v-.019h-.019v-.029h-.049v-.019l-.029-.01v-.019h-.019z" fill="#a5e6ee"/><path d="M11.563 5.42h.058l.01.01.066.006c.022.004.022.004.051.023q.024.006.049.01v.019l-.088-.01v-.019h-.098V5.44h-.049z" fill="#a1e5ed"/><path d="m14.541 11.709.039.01h-.029v.029h-.019l-.01.029-.049.019-.019.029c-.03.002-.03.002-.058 0v-.019h.049v-.029h.019v-.019h.049v-.029h.029z" fill="#a5e6ee"/><path d="M13.467 6.367c.018.002.018.002.039.01l.029.049a.4.4 0 0 0 .098.049v.01h-.068v-.019l-.049-.01v-.019h-.029v-.049h-.019z" fill="#a4e6ee"/><path d="M12.949 5.996h.058v.019h.019v.029h.049v.019h.029l-.01.029-.026-.015a.16.16 0 0 0-.091-.015l.01-.029z" fill="#8bdfea"/><path d="m14.151 7.002.039.01v.019l.017.007c.036.02.066.045.079.084l.002.017h-.019V7.12h-.019c-.016-.013-.016-.013-.029-.029v-.019h-.019v-.019l-.029-.01v-.019h-.019z" fill="#a1e5ee"/><path d="m14.121 11.426.019.01a.4.4 0 0 1-.119.097q-.039.025-.07.058l-.015.01-.029-.01.019-.014.083-.063.029-.022.028-.021.026-.02c.019-.014.019-.014.03-.025" fill="#83ceed"/><path d="M9.092 8.076v.01c-.092.02-.179.034-.273.029.081-.046.183-.042.273-.039" fill="#83cded"/><path d="m14.785 7.813.019.01.009.029.01.029.029.01c.019.029.019.029.016.051l-.006.018-.029-.01v-.049h-.029v-.019h-.019z" fill="#a4e6ee"/><path d="M8.144 12.461h.117v.019h.078v.01h-.195z" fill="#8bdfea"/><path d="M11.807 5.488h.058l.01.019a.3.3 0 0 0 .117.029v.019h-.088v-.019l-.049-.01v-.019h-.049z" fill="#aae7ef"/><path d="M12.461 12.256q-.12.035-.244.058l-.01-.019.073-.019.021-.005c.126-.032.126-.032.16-.015" fill="#83cfed"/><path d="M12.881 12.334c.029-.004.029-.004.06-.002l.032.001.024.001-.039.01v.029h-.107z" fill="#8bdfea"/><path d="m12.247 5.633.028.001.01.029.021.004a.4.4 0 0 1 .076.026v.01h-.068v-.019l-.049-.01v-.019h-.068c.019-.019.019-.019.05-.021" fill="#afe9f0"/><path d="M14.98 11.221H15l-.01.039h-.019l-.008.019c-.012.02-.012.02-.041.03v.049h-.019v-.068h.029v-.019h.019v-.029h.029z" fill="#a7e6ef"/><path d="M14.688 7.666h.019c.019.029.019.029.019.068l.029.01c.012.03.012.03.019.058l-.019.01-.019-.01v-.049h-.029a.14.14 0 0 1-.019-.088" fill="#a2e5ee"/><path d="M12.998 6.055a.2.2 0 0 1 .146.088l-.019.01-.029-.01v-.019h-.019v-.029h-.049v-.019h-.029z" fill="#aee8f0"/><path d="M11.494 12.432c-.01.014-.01.014-.029.029l-.08.002-.022-.001-.054-.001c.061-.032.117-.03.185-.029" fill="#84d1ec"/><path d="M12.851 5.957a.2.2 0 0 1 .146.088h-.049v-.019h-.019v-.029h-.049v-.019l-.029-.01z" fill="#abe8f0"/><path d="M6.67 12.07h.107v.029h.058l-.01.019h-.058l-.01-.029h-.088z" fill="#a9e7ef"/><path d="m14.297 7.129.01.029h.029v.019l.029.01a.15.15 0 0 1 .019.078h-.039v-.068l-.029-.01v-.019h-.019z" fill="#a8e7ef"/><path d="M14.951 8.154h.019v.019l.029.01a.2.2 0 0 1 .019.107l-.019.01v-.058h-.019v-.049h-.029z" fill="#a5e6ee"/><path d="m13.164 12.281.058.004v.039h-.107c.029-.039.029-.039.049-.043" fill="#8bdfea"/><path d="m15.176 8.613.019.01a.2.2 0 0 1 .005.044c0 .03 0 .03.014.054v.058h-.019V8.73h-.019z" fill="#b3eaf1"/><path d="M5.293 10.849h.019v.029l.029.01v.039h.019v.068c-.019-.01-.019-.01-.027-.029l-.014-.048c-.006-.022-.006-.022-.027-.029z" fill="#a4e5ee"/><path d="M5.957 11.709h.039v.019h.029v.029h.049l.019.039a.5.5 0 0 1-.088-.029v-.019h-.019v-.029z" fill="#a6e6ee"/><path d="M7.178 12.246h.098v.01l.049.01-.01.019h-.058l-.01-.01-.068-.01z" fill="#b0e9f0"/><path d="M13.662 12.119h.088v.019h-.068l-.01.029h-.058v-.019h.049z" fill="#a4e5ee"/><path d="M15.049 11.094h.019a.4.4 0 0 1-.029.098h-.019v.019H15v-.039h.029v-.049h.019z" fill="#a2e5ee"/><path d="M5.215 10.488h.019c.013.027.011.049.01.079v.058h-.019z" fill="#98e2ec"/><path d="M13.516 12.168h.078v.019h-.058l-.01.029h-.058v-.019h.049z" fill="#ade8f0"/><path d="M15.224 8.789c.019.01.019.01.03.041.008.034.01.061.008.096l-.019.01v-.058h-.019zm-.342-.83c.019.01.019.01.03.03.011.037.01.068.008.107h-.019v-.068h-.019z" fill="#aae7ef"/><path d="m12.607 7.07.176.019c-.036.024-.054.022-.098.019-.034-.009-.053-.014-.078-.039" fill="#b0e9f0"/><path d="m10.898 5.278.02.001.049.004v.01h-.137v.019c-.044.004-.044.004-.067-.015l-.012-.014a.6.6 0 0 1 .146-.005" fill="#8ddfea"/><path d="M6.982 12.168h.068v.029h.049l-.01.019H7.04l-.01-.029h-.049z" fill="#a6e6ee"/><path d="M6.836 12.119h.068v.029h.039v.019h-.049l-.01-.029h-.049z" fill="#aae7ef"/><path d="M13.145 12.031a1 1 0 0 1-.099.046l-.019.008c-.018.004-.018.004-.047-.005l.052-.024.029-.013c.051-.023.051-.023.085-.012" fill="#82cced"/><path d="M14.629 10.781c0 .054-.017.082-.049.127l-.01-.019c.009-.023.009-.023.023-.049l.014-.027c.012-.022.012-.022.022-.032" fill="#81caee"/><path d="m8.779 12.49-.01.029-.137-.01v-.01c.048-.013.097-.011.146-.01" fill="#98e2ec"/><path d="M13.926 12.051h.068c-.01.019-.01.019-.031.03a.2.2 0 0 1-.086.008v-.019h.049z" fill="#aee9f0"/><path d="M14.346 11.826h.039v.019h-.019l-.01.029c-.029.019-.029.019-.058.019v-.019h.019v-.019h.029z" fill="#a4e5ee"/><path d="M14.609 11.631h.029c-.012.038-.024.057-.058.078h-.019v-.029h.029v-.019h.019z" fill="#97e2ec"/><path d="m8.32 8.174.019.01-.01.019.039-.01v.019c-.072.024-.072.024-.107.01z" fill="#88d0e4"/><path d="M13.974 6.807c.023.003.023.003.049.01.019.029.019.029.019.058h-.039v-.049h-.029z" fill="#aae7ef"/><path d="M12.002 5.566a.2.2 0 0 1 .117.029v.01h-.068v-.019h-.049z" fill="#a2e5ee"/><path d="M15.274 8.965h.019a.2.2 0 0 1 .019.107h-.019v-.049h-.019z" fill="#a6e6ee"/><path d="m13.711 6.543.01.029h.029v.019h.019v.029h.029v.029h-.019V6.63h-.019v-.019l-.029-.01v-.019h-.019z" fill="#aee8f0"/><path d="M6.396 11.953h.088v.019h.019v.019l-.048-.008-.027-.005-.022-.006z" fill="#a5e6ee"/><path d="m5.283 10.742.01.039h.019v.068h-.019c-.016-.04-.022-.066-.01-.107" fill="#98e2ec"/><path d="M12.754 5.908c.027-.002.027-.002.058 0a.2.2 0 0 1 .039.039l-.019.01-.029-.01v-.019h-.058z" fill="#a6e6ee"/><path d="M5.254 10.635h.01v.068h.019l-.01.039c-.015-.01-.015-.01-.029-.029-.002-.035-.002-.035 0-.068z" fill="#9ce3ed"/><path d="M14.395 7.275c.019 0 .019 0 .045.023.023.026.023.026.023.045l-.049-.01v-.019h-.019z" fill="#a3e5ee"/><path d="M14.219 11.904h.068c-.012.025-.023.029-.049.039h-.039v-.019h.019z" fill="#a0e4ed"/><path d="M14.883 11.367h.019l-.01.039h-.019v.019h-.029l-.01.029v-.039h.019v-.029h.029z" fill="#a2e5ee"/><path d="M13.535 6.445a.4.4 0 0 1 .098.029v.01h-.068v-.019h-.029z" fill="#b1e9f0"/><path d="M11.758 12.441h.098v.019l-.088.01z" fill="#97e2ec"/><path d="M6.494 12.002h.058v.019l.039.01c-.033.01-.045.012-.076-.004l-.021-.016z" fill="#a7e7ef"/><path d="M15.127 8.496h.019l.019.088h-.019v-.019h-.019z" fill="#a7e6ef"/><path d="m14.053 12.002.039.01c-.011.015-.011.015-.029.029-.031.002-.031.002-.058 0v-.019h.049z" fill="#ace8f0"/><path d="M13.808 8.652h.029v.019h.029l.01.019.029.01v.019l-.049-.019v-.019l-.049-.01z" fill="#82cded"/><path d="M6.992 6.387h.019a.2.2 0 0 1-.049.068l-.019.029a.15.15 0 0 1 .049-.098" fill="#989795"/><path d="m6.055 9.629.019.01a.2.2 0 0 1-.078.049l-.019-.019.038-.02.021-.011z" fill="#83bee2"/><path d="m13.193 6.172.049.01v.019h.019v.019h-.039v-.029h-.029z" fill="#b5eaf1"/><path d="M13.076 6.094a.2.2 0 0 1 .068.049l-.019.01-.029-.01v-.019h-.019z" fill="#9fe4ed"/><path d="M15.127 10.947h.039l-.019.058-.019.01z" fill="#a0e4ee"/><path d="M13.613 6.484a.2.2 0 0 1 .068.049h-.049v-.019h-.019z" fill="#9de3ed"/><path d="m12.851 5.957.078.019v.019h-.049v-.019l-.029-.01z" fill="#a0e4ed"/><path d="m12.793 7.744.01.039h.019v.058l-.029-.019c-.004-.026-.001-.051 0-.078" fill="#91e0eb"/><path d="M13.877 6.738c.046.008.046.008.068.019v.019h-.039v-.019h-.029z" fill="#ace8ef"/></svg>